<?xml version="1.0" encoding="UTF-8"?> <svg xmlns="http://www.w3.org/2000/svg" xmlns:xlink="http://www.w3.org/1999/xlink" width="750pt" height="749.999995pt" viewBox="0 0 750 749.999995"> <defs> <clipPath id="clip1"> <path d="M 201.289062 35.339844 L 604.257812 35.339844 L 604.257812 750 L 201.289062 750 Z M 201.289062 35.339844 "></path> </clipPath> </defs> <g id="surface1"> <g clip-path="url(#clip1)" clip-rule="nonzero"> <path style=" stroke:none;fill-rule:nonzero;fill:rgb(87.838745%,70.979309%,60.389709%);fill-opacity:1;" d="M 604.257812 35.355469 L 604.257812 750.046875 L 406.613281 750.046875 L 406.613281 281.726562 C 374.621094 306.023438 343.6875 325.671875 313.78125 340.6875 C 283.878906 355.71875 246.375 370.089844 201.289062 383.835938 L 201.289062 223.730469 C 267.804688 202.332031 319.460938 176.59375 356.242188 146.5625 C 393.011719 116.527344 421.792969 79.453125 442.59375 35.355469 L 604.257812 35.355469 "></path> </g> <path style=" stroke:none;fill-rule:nonzero;fill:rgb(65.098572%,12.548828%,5.488586%);fill-opacity:1;" d="M 194.902344 195.046875 C 212.988281 188.222656 229.859375 180.980469 245.453125 173.375 L 335.304688 263.148438 C 320.460938 273.625 305.816406 283.089844 291.445312 291.511719 Z M 165.921875 266.050781 L 165.921875 205.324219 C 168.820312 204.371094 171.644531 203.390625 174.484375 202.410156 L 273.625 301.480469 C 270.460938 303.167969 267.316406 304.824219 264.183594 306.390625 C 252.195312 312.417969 238.777344 318.371094 224.148438 324.230469 Z M 165.921875 344.96875 L 165.921875 293.8125 L 204.066406 331.929688 C 192.0625 336.347656 179.351562 340.703125 165.921875 344.96875 Z M 371.242188 671.113281 L 371.242188 598.929688 L 487.113281 714.707031 L 414.855469 714.707031 Z M 371.242188 714.707031 L 371.242188 698.890625 L 387.070312 714.707031 Z M 549.238281 714.707031 L 514.898438 714.707031 L 371.242188 571.152344 L 371.242188 498.96875 L 549.238281 676.820312 Z M 549.238281 649.054688 L 371.242188 471.203125 L 371.242188 399.003906 L 549.238281 576.855469 Z M 549.238281 549.09375 L 371.242188 371.242188 L 371.242188 299.058594 L 549.238281 476.910156 Z M 549.238281 449.148438 L 371.242188 271.296875 L 371.242188 236.414062 L 355.476562 248.394531 C 354.109375 249.4375 352.742188 250.417969 351.378906 251.429688 L 263.800781 163.925781 C 280.148438 155.042969 294.886719 145.6875 307.964844 135.871094 L 549.238281 376.949219 Z M 549.238281 349.183594 L 323.300781 123.429688 C 336.273438 112.277344 348.292969 100.191406 359.300781 87.199219 L 549.238281 276.984375 Z M 549.238281 249.222656 L 371.59375 71.722656 C 381.957031 57.84375 391.261719 43.054688 399.488281 27.410156 L 549.238281 177.039062 Z M 549.238281 149.277344 L 419.523438 19.648438 L 491.765625 19.648438 L 549.238281 77.078125 Z M 549.238281 49.3125 L 519.550781 19.648438 L 549.238281 19.648438 Z M 391.167969 0.015625 L 388.511719 5.644531 C 368.433594 48.210938 340.277344 84.484375 304.832031 113.429688 C 269.171875 142.558594 218.113281 167.929688 153.085938 188.863281 L 146.269531 191.058594 L 146.269531 371.5625 L 158.964844 367.699219 C 204.359375 353.863281 242.722656 339.136719 273.011719 323.9375 C 298.371094 311.207031 324.726562 295.007812 351.59375 275.683594 L 351.59375 734.339844 L 568.890625 734.339844 L 568.890625 0.015625 L 391.167969 0.015625 "></path> </g> </svg> 