<?xml version="1.0" encoding="UTF-8"?> <svg xmlns="http://www.w3.org/2000/svg" xmlns:xlink="http://www.w3.org/1999/xlink" width="750pt" height="749.999995pt" viewBox="0 0 750 749.999995"> <defs> <clipPath id="clip1"> <path d="M 113 46 L 674.984375 46 L 674.984375 749.484375 L 113 749.484375 Z M 113 46 "></path> </clipPath> <clipPath id="clip2"> <path d="M 77.34375 0 L 661 0 L 661 720 L 77.34375 720 Z M 77.34375 0 "></path> </clipPath> </defs> <g id="surface1"> <g clip-path="url(#clip1)" clip-rule="nonzero"> <path style=" stroke:none;fill-rule:nonzero;fill:rgb(65.098572%,12.548828%,5.488586%);fill-opacity:1;" d="M 302.265625 254.878906 L 123.777344 222.898438 C 138.609375 166.042969 167.121094 122.476562 209.3125 92.171875 C 251.5 61.898438 311.226562 46.753906 388.484375 46.753906 C 477.179688 46.753906 541.308594 63.292969 580.875 96.355469 C 620.421875 129.417969 640.210938 170.980469 640.210938 221.046875 C 640.210938 250.414062 632.171875 276.980469 616.105469 300.773438 C 600.023438 324.582031 575.769531 345.4375 543.328125 363.355469 C 569.585938 369.839844 589.683594 377.417969 603.585938 386.066406 C 626.148438 399.980469 643.683594 418.285156 656.203125 440.996094 C 668.722656 463.703125 674.984375 490.835938 674.984375 522.355469 C 674.984375 561.917969 664.613281 599.84375 643.921875 636.15625 C 623.210938 672.46875 593.394531 700.429688 554.453125 720.054688 C 515.511719 739.679688 464.347656 749.484375 401.003906 749.484375 C 339.1875 749.484375 290.441406 742.214844 254.734375 727.695312 C 219.042969 713.171875 189.6875 691.929688 166.664062 663.96875 C 143.640625 635.996094 125.941406 600.855469 113.585938 558.503906 L 302.265625 533.464844 C 309.683594 571.484375 321.179688 597.84375 336.800781 612.511719 C 352.390625 627.183594 372.253906 634.527344 396.359375 634.527344 C 421.699219 634.527344 442.792969 625.253906 459.644531 606.714844 C 476.484375 588.171875 484.910156 563.460938 484.910156 532.546875 C 484.910156 501.027344 476.792969 476.625 460.566406 459.3125 C 444.351562 442.003906 422.320312 433.339844 394.507812 433.339844 C 379.671875 433.339844 359.273438 437.0625 333.3125 444.480469 L 343.058594 309.585938 C 353.5625 311.128906 361.753906 311.898438 367.625 311.898438 C 392.339844 311.898438 412.976562 304.023438 429.515625 288.253906 C 446.042969 272.503906 454.320312 253.8125 454.320312 232.171875 C 454.320312 211.476562 448.132812 194.9375 435.777344 182.566406 C 423.40625 170.210938 406.402344 164.027344 384.773438 164.027344 C 362.523438 164.027344 344.441406 170.761719 330.539062 184.199219 C 316.625 197.636719 307.207031 221.207031 302.265625 254.878906 "></path> </g> <g clip-path="url(#clip2)" clip-rule="nonzero"> <path style=" stroke:none;fill-rule:nonzero;fill:rgb(100%,100%,100%);fill-opacity:1;" d="M 627.007812 559.5 L 349.007812 281.519531 C 368.886719 280.632812 386.453125 274.785156 401.417969 264.121094 L 640.449219 503.132812 C 638.59375 522.28125 634.101562 541.121094 627.007812 559.5 Z M 611.640625 591.804688 C 605.75 602.113281 598.957031 611.683594 591.464844 620.628906 L 470.253906 499.421875 C 470.328125 497.273438 470.371094 495.105469 470.371094 492.898438 C 470.371094 459.046875 461.320312 432.214844 443.460938 413.167969 C 425.453125 393.941406 400.902344 384.210938 370.488281 384.210938 C 366.054688 384.210938 361.1875 384.523438 355.9375 385.117188 L 322.632812 351.816406 L 327.335938 286.710938 L 618.851562 578.1875 C 616.609375 582.757812 614.207031 587.296875 611.640625 591.804688 Z M 539.039062 664.875 L 444.945312 570.785156 C 456.054688 557.628906 463.5625 541.789062 467.390625 523.410156 L 578.589844 634.601562 C 566.882812 646.066406 553.742188 656.226562 539.039062 664.875 Z M 468.992188 691.484375 L 381.453125 603.96875 C 400.335938 602.367188 417.070312 595.722656 431.398438 584.09375 L 521.476562 674.160156 C 506.003906 681.445312 488.484375 687.230469 468.992188 691.484375 Z M 381.125 700.296875 L 195.21875 514.421875 L 256.871094 506.230469 L 276.304688 525.679688 C 283.8125 550.109375 293.691406 567.953125 306.257812 579.777344 C 319.324219 592.058594 335.152344 599.785156 353.488281 602.84375 L 446.25 695.59375 C 426.269531 698.5625 404.535156 700.132812 381.125 700.296875 Z M 275.578125 691.425781 L 109.875 525.738281 L 171.511719 517.550781 L 353.949219 699.972656 C 324.414062 699.007812 298.246094 696.144531 275.578125 691.425781 Z M 234.292969 679.261719 C 200.234375 665.394531 171.855469 644.878906 149.957031 618.285156 C 135.316406 600.5 122.839844 579.390625 112.589844 555.300781 L 237.972656 680.671875 C 236.742188 680.199219 235.496094 679.738281 234.292969 679.261719 Z M 319.726562 392.164062 L 320.824219 376.871094 L 332.988281 389.019531 C 328.761719 389.9375 324.355469 390.960938 319.726562 392.164062 Z M 438.90625 204.9375 L 536.191406 302.214844 C 529.5 306.78125 522.335938 311.171875 514.695312 315.398438 L 493.484375 327.105469 L 517.011719 332.917969 C 542.183594 339.132812 561.542969 346.386719 574.570312 354.5 C 595.617188 367.480469 612.203125 384.777344 623.863281 405.929688 C 634.796875 425.777344 640.613281 449.746094 641.324219 477.144531 L 415.824219 251.660156 C 428.730469 238.042969 436.457031 222.378906 438.90625 204.9375 Z M 418.449219 136.199219 C 407.621094 125.371094 393.675781 118.664062 376.914062 116.097656 L 284.167969 23.359375 C 303.617188 19.769531 324.738281 17.605469 347.511719 16.894531 L 585.070312 254.421875 C 584.773438 254.878906 584.507812 255.355469 584.210938 255.816406 C 575.828125 268.214844 564.835938 279.859375 551.546875 290.71875 L 438.683594 177.863281 C 436.222656 161.238281 429.5 147.25 418.449219 136.199219 Z M 300.960938 136.804688 L 211.613281 47.480469 C 226.609375 39.542969 243.476562 33.121094 262.199219 28.242188 L 349.484375 115.519531 C 330.289062 117.492188 314 124.628906 300.960938 136.804688 Z M 270.636719 203.15625 L 157.71875 90.257812 C 167.582031 79.046875 178.605469 69.019531 190.8125 60.25 C 192.117188 59.316406 193.484375 58.441406 194.820312 57.535156 L 288.871094 151.582031 C 280.695312 164.515625 274.660156 181.558594 270.636719 203.15625 Z M 154.15625 183.351562 L 120.867188 150.066406 C 127.691406 133.675781 136.03125 118.722656 145.804688 105.195312 L 239.21875 198.601562 Z M 111.714844 175.742188 C 112.324219 173.695312 112.992188 171.695312 113.644531 169.691406 L 121.445312 177.496094 Z M 450.476562 23.183594 L 606.640625 179.332031 C 606.640625 180.015625 606.6875 180.699219 606.6875 181.394531 C 606.6875 201.285156 602.621094 219.949219 594.667969 237.167969 L 374.183594 16.714844 C 402.207031 17.117188 427.691406 19.25 450.476562 23.183594 Z M 550.757812 63.988281 C 579.566406 88.078125 597.011719 116.246094 603.613281 149.460938 L 485.292969 31.148438 C 512.027344 38.964844 533.921875 49.914062 550.757812 63.988281 Z M 640.492188 396.761719 C 627.230469 372.714844 608.40625 353.046875 584.566406 338.363281 C 574.019531 331.792969 560.121094 325.796875 543.074219 320.472656 C 567.390625 304.511719 586.464844 286.402344 599.949219 266.433594 C 617.023438 241.160156 625.675781 212.546875 625.675781 181.394531 C 625.675781 128.632812 604.5625 84.222656 562.9375 49.421875 C 521.800781 15.039062 455.015625 -2.390625 364.453125 -2.390625 C 285.53125 -2.390625 223.390625 13.496094 179.746094 44.824219 C 135.910156 76.300781 105.898438 122.0625 90.5625 180.863281 L 87.980469 190.785156 L 286.199219 226.3125 L 287.625 216.609375 C 292.238281 185.207031 300.8125 163.269531 313.109375 151.371094 C 325.289062 139.59375 340.878906 133.871094 360.742188 133.871094 C 379.9375 133.871094 394.417969 139.03125 405.023438 149.636719 C 415.632812 160.242188 420.792969 174.277344 420.792969 192.519531 C 420.792969 211.609375 413.644531 227.71875 398.925781 241.738281 C 384.09375 255.890625 365.996094 262.757812 343.59375 262.757812 C 338.179688 262.757812 330.378906 262.015625 320.40625 260.546875 L 310.289062 259.046875 L 298.839844 417.675781 L 311.894531 413.953125 C 336.890625 406.820312 356.605469 403.199219 370.488281 403.199219 C 395.78125 403.199219 415.125 410.703125 429.621094 426.148438 C 444.070312 441.558594 451.382812 464.015625 451.382812 492.898438 C 451.382812 521.214844 443.714844 544.027344 428.582031 560.683594 C 413.480469 577.296875 395.085938 585.382812 372.34375 585.382812 C 350.539062 585.382812 333.164062 579.035156 319.265625 565.9375 C 305.21875 552.734375 294.550781 527.859375 287.550781 492.007812 L 285.84375 483.238281 L 77.34375 510.890625 L 80.445312 521.511719 C 93.097656 564.898438 111.550781 601.507812 135.300781 630.34375 C 159.214844 659.417969 190.117188 681.785156 227.128906 696.839844 C 263.8125 711.761719 314.222656 719.328125 376.972656 719.328125 C 441.53125 719.328125 494.59375 709.078125 534.695312 688.875 C 575.148438 668.496094 606.582031 639.003906 628.136719 601.210938 C 649.574219 563.609375 660.445312 523.734375 660.445312 482.691406 C 660.445312 449.714844 653.726562 420.792969 640.492188 396.761719 "></path> </g> </g> </svg> 